<svg id="Grupo_1" data-name="Grupo 1" xmlns="http://www.w3.org/2000/svg" width="74" height="14" viewBox="0 0 74 14">
  <path id="Caminho_1" data-name="Caminho 1" d="M41.13,6.611H37.969v.843a.487.487,0,0,0,.487.486h1.76v.437a2.688,2.688,0,0,1-4.99-1.348,2.489,2.489,0,0,1,2.567-2.636A2.519,2.519,0,0,1,39.912,5.47l.066.1,1.566-.415-.1-.185A4.165,4.165,0,0,0,33.63,7.028a4.091,4.091,0,0,0,4.163,4.162c.033,0,.065,0,.092,0h.044l.05,0a4.156,4.156,0,0,0,2.5-.937,3.966,3.966,0,0,0,1.1-1.435l.015-.033V7.1A.487.487,0,0,0,41.13,6.611Z" fill="#333d47"/>
  <path id="Caminho_2" data-name="Caminho 2" d="M53.618,2.866a4.1,4.1,0,1,0,2.95,1.177A4.169,4.169,0,0,0,53.618,2.866Zm0,6.8a2.489,2.489,0,0,1-2.567-2.636,2.573,2.573,0,1,1,5.144,0A2.5,2.5,0,0,1,53.618,9.664Z" fill="#333d47"/>
  <path id="Caminho_3" data-name="Caminho 3" d="M57.857,3.506v.986h2.478v6.544h1.552V4.491H63.9a.487.487,0,0,0,.487-.486V3.02H58.344A.487.487,0,0,0,57.857,3.506Z" fill="#333d47"/>
  <path id="Caminho_4" data-name="Caminho 4" d="M65.224,3.506v7.53H66.29a.486.486,0,0,0,.487-.485V3.02H65.711A.487.487,0,0,0,65.224,3.506Z" fill="#333d47"/>
  <path id="Caminho_5" data-name="Caminho 5" d="M71.409,6.246l-.278-.089c-.842-.268-1.569-.5-1.569-1.017,0-.656.672-.89,1.3-.89a1.5,1.5,0,0,1,1.545,1.208l.035.172,1.052-.287a.485.485,0,0,0,.326-.458.472.472,0,0,0-.026-.155l-.006-.018-.009-.022a3,3,0,0,0-2.872-1.823c-1.664,0-2.919,1-2.919,2.317,0,1.479,1.38,1.943,2.206,2.221.123.04.248.079.373.118.95.3,1.848.576,1.848,1.263,0,.576-.571.978-1.387.978A1.68,1.68,0,0,1,69.263,8.4l-.028-.182-1.119.305a.464.464,0,0,0-.289.444.562.562,0,0,0,.038.189,3.134,3.134,0,0,0,3.1,2.035C72.75,11.19,74,10.179,74,8.731,74,7.073,72.5,6.595,71.409,6.246Z" fill="#333d47"/>
  <path id="Caminho_6" data-name="Caminho 6" d="M30.044,3.02H29.023l-3.95,8.016H26.49a.491.491,0,0,0,.439-.274l.608-1.247a.158.158,0,0,1,.138-.082h3.716a.158.158,0,0,1,.118.054l.642,1.3a.488.488,0,0,0,.424.247h1.418L30.089,3.112Zm-.51,2.4,1.235,2.538H28.3Z" fill="#333d47"/>
  <path id="Caminho_7" data-name="Caminho 7" d="M48.706,5.656c0-1.626-1.2-2.635-3.128-2.635h-2.2a.487.487,0,0,0-.487.486v7.045a.487.487,0,0,0,.487.486h1.065V4.491h1.278c.882,0,1.388.424,1.388,1.164S46.6,6.82,45.721,6.82h-.94L47.255,10.8l.009.015a.484.484,0,0,0,.41.223h1.483L47.242,7.973A2.407,2.407,0,0,0,48.706,5.656Z" fill="#333d47"/>
  <path id="Caminho_8" data-name="Caminho 8" d="M17.871,9.073H12.306a.427.427,0,0,0-.388.2l-.007.017-.721,1.524-.03.064a.433.433,0,0,1-.376.181l-9.15,0L2.6,9.32a.114.114,0,0,1,.01-.022A.425.425,0,0,1,3,9.1l6.243-.033a.369.369,0,0,0,.042,0h.042a.414.414,0,0,0,.344-.2l0,0,.013-.029a.012.012,0,0,0,0,0l.711-1.5c0-.007.007-.015.011-.022a.424.424,0,0,1,.387-.2h5.661a.575.575,0,0,1,.467.226l0,.006ZM20.544,14,18.52,10.257l-.026-.034v0a.588.588,0,0,0-.445-.2H13.034a.428.428,0,0,0-.384.193l-.018.039-.724,1.533c0,.007-.007.014-.01.021a.426.426,0,0,1-.388.2H1.37a.415.415,0,0,0-.39.222L0,14ZM14.361,2.681H8.306a.354.354,0,0,0-.333.2.127.127,0,0,0-.009.023l-.843,2.07a.2.2,0,0,1-.008.02.357.357,0,0,1-.334.2H4.925L7.622.232A.354.354,0,0,1,7.969,0h4.674a.479.479,0,0,1,.382.2v0s.021.03.022.034Zm1.925,3.482L15.022,3.849a.224.224,0,0,0-.014-.021.5.5,0,0,0-.4-.2H8.92a.372.372,0,0,0-.348.2.135.135,0,0,0-.01.022L7.7,5.886a.306.306,0,0,1-.038.089.377.377,0,0,1-.308.167H4.589a.4.4,0,0,0-.354.215l-.942,1.7,5.452.058a.372.372,0,0,0,.266-.153l.048-.113.616-1.455,0,0a.232.232,0,0,1,.012-.029l0,0a.372.372,0,0,1,.345-.2Z" fill="#00796b" fill-rule="evenodd"/>
</svg>
