<svg xmlns="http://www.w3.org/2000/svg" width="200.438" height="54" viewBox="0 0 200.438 54">
  <g id="Grupo_1" data-name="Grupo 1" transform="translate(-3 -9)">
    <path id="Caminho_1" data-name="Caminho 1" d="M91.88,31.315h-2.1V36H87.143V23.2H91.9a5.375,5.375,0,0,1,3.5,1.011,3.488,3.488,0,0,1,1.23,2.856,3.936,3.936,0,0,1-.571,2.189,3.849,3.849,0,0,1-1.714,1.389l2.769,5.229V36h-2.83Zm-2.1-2.136h2.127a2.19,2.19,0,0,0,1.538-.5,1.821,1.821,0,0,0,.545-1.4,1.924,1.924,0,0,0-.519-1.424,2.121,2.121,0,0,0-1.573-.519H89.779Zm17.2,1.274h-5.063v3.428h5.942V36H99.282V23.2h8.561v2.136h-5.924v3.05h5.063ZM112.853,36h-2.637V23.2h2.637Zm13.5,0h-2.636l-5.133-8.42V36h-2.637V23.2h2.637l5.141,8.438V23.2h2.628Zm5.75,0h-2.637V23.2H132.1Zm13.141-4.263a4.523,4.523,0,0,1-1.53,3.252,5.338,5.338,0,0,1-3.621,1.187,4.836,4.836,0,0,1-3.876-1.652,6.828,6.828,0,0,1-1.406-4.553v-.782a7.68,7.68,0,0,1,.65-3.252,4.857,4.857,0,0,1,1.855-2.153,5.8,5.8,0,0,1,6.381.431,4.865,4.865,0,0,1,1.564,3.331h-2.637a2.636,2.636,0,0,0-.694-1.793,2.524,2.524,0,0,0-1.8-.562,2.246,2.246,0,0,0-1.977.949,5.3,5.3,0,0,0-.668,2.927v.967a5.7,5.7,0,0,0,.624,3.032,2.21,2.21,0,0,0,1.986.958,2.6,2.6,0,0,0,1.82-.554,2.53,2.53,0,0,0,.694-1.731ZM150.423,36h-2.637V23.2h2.637ZM160.9,33.363h-4.623L155.4,36h-2.8l4.763-12.8H159.8l4.79,12.8h-2.8Zm-3.911-2.136h3.2l-1.608-4.79Zm14.178.088h-2.1V36H166.43V23.2h4.755a5.373,5.373,0,0,1,3.5,1.011,3.489,3.489,0,0,1,1.23,2.856,3.934,3.934,0,0,1-.571,2.189,3.847,3.847,0,0,1-1.714,1.389l2.769,5.229V36h-2.83Zm-2.1-2.136h2.127a2.191,2.191,0,0,0,1.538-.5,1.822,1.822,0,0,0,.545-1.4,1.923,1.923,0,0,0-.519-1.424,2.121,2.121,0,0,0-1.573-.519h-2.118ZM88.365,48.1,87.688,52H86.4l1.729-9.953,3.322.007a3.24,3.24,0,0,1,2.372.82,2.56,2.56,0,0,1,.718,2.167A3.093,3.093,0,0,1,93.4,47.29a4.114,4.114,0,0,1-2.673.82Zm.185-1.073,2.215.007a2.693,2.693,0,0,0,1.716-.526,2.106,2.106,0,0,0,.786-1.463,1.64,1.64,0,0,0-.349-1.36,1.749,1.749,0,0,0-1.333-.554l-2.358-.007Zm11.4-1.3-.581-.062A2.117,2.117,0,0,0,97.5,46.743L96.59,52H95.353l1.285-7.4,1.2-.007-.185.861a2.212,2.212,0,0,1,1.853-1,2.271,2.271,0,0,1,.588.1Zm4.533-1.265a2.666,2.666,0,0,1,1.593.506,2.856,2.856,0,0,1,.978,1.36,4.146,4.146,0,0,1,.218,1.887l-.013.15a5.007,5.007,0,0,1-.643,1.955,3.782,3.782,0,0,1-1.326,1.354,3.233,3.233,0,0,1-1.784.458,2.688,2.688,0,0,1-1.593-.506,2.819,2.819,0,0,1-.971-1.34,4.3,4.3,0,0,1-.218-1.866,5.025,5.025,0,0,1,.622-2.064,3.832,3.832,0,0,1,1.333-1.415A3.2,3.2,0,0,1,104.486,44.467Zm-2.515,3.965a4.187,4.187,0,0,0,0,.9,2.206,2.206,0,0,0,.478,1.285,1.457,1.457,0,0,0,1.108.5,1.983,1.983,0,0,0,1.134-.3,2.577,2.577,0,0,0,.875-.984,4.123,4.123,0,0,0,.458-1.456,6.479,6.479,0,0,0,.021-1.06,2.279,2.279,0,0,0-.5-1.306,1.479,1.479,0,0,0-1.108-.506,2.013,2.013,0,0,0-1.626.752,3.714,3.714,0,0,0-.828,2.023Zm10-5.619-.315,1.791H113l-.171.978h-1.34l-.772,4.6a1.59,1.59,0,0,0-.007.328.522.522,0,0,0,.581.533,3.554,3.554,0,0,0,.6-.068l-.1,1.032a3.361,3.361,0,0,1-.9.123,1.3,1.3,0,0,1-1.108-.54,2.114,2.114,0,0,1-.287-1.429l.752-4.58h-1.306l.171-.978h1.306l.314-1.791Zm5.716,1.654a2.665,2.665,0,0,1,1.592.506,2.856,2.856,0,0,1,.978,1.36,4.159,4.159,0,0,1,.219,1.887l-.014.15a5.007,5.007,0,0,1-.643,1.955,3.766,3.766,0,0,1-1.326,1.354,3.233,3.233,0,0,1-1.784.458,2.688,2.688,0,0,1-1.593-.506,2.817,2.817,0,0,1-.97-1.34,4.319,4.319,0,0,1-.219-1.866,5.04,5.04,0,0,1,.622-2.064,3.84,3.84,0,0,1,1.333-1.415A3.2,3.2,0,0,1,117.682,44.467Zm-2.516,3.965a4.187,4.187,0,0,0,0,.9,2.207,2.207,0,0,0,.479,1.285,1.457,1.457,0,0,0,1.107.5,1.988,1.988,0,0,0,1.135-.3,2.585,2.585,0,0,0,.875-.984,4.144,4.144,0,0,0,.458-1.456,6.579,6.579,0,0,0,.02-1.06,2.272,2.272,0,0,0-.5-1.306,1.479,1.479,0,0,0-1.107-.506,2.015,2.015,0,0,0-1.627.752,3.713,3.713,0,0,0-.827,2.023Zm3.568-6.932h1.579l-2.091,2.01h-1.087Zm6.427,1.313-.314,1.791h1.346l-.171.978h-1.339l-.773,4.6a1.59,1.59,0,0,0-.007.328.522.522,0,0,0,.581.533,3.543,3.543,0,0,0,.6-.068l-.1,1.032a3.361,3.361,0,0,1-.9.123,1.3,1.3,0,0,1-1.108-.54,2.119,2.119,0,0,1-.287-1.429l.752-4.58H122.14l.171-.978h1.305l.315-1.791ZM128.245,52h-1.23l1.285-7.4h1.23Zm1.019-10.1a.661.661,0,0,1,.519.191.688.688,0,0,1,.212.526.735.735,0,0,1-.731.745.682.682,0,0,1-.527-.185.673.673,0,0,1-.2-.519.778.778,0,0,1,.205-.533A.722.722,0,0,1,129.264,41.9Zm8.2,6.433a5.854,5.854,0,0,1-.609,2.03,3.478,3.478,0,0,1-1.169,1.354,2.686,2.686,0,0,1-1.544.424,2.463,2.463,0,0,1-1.969-.868l-.663,3.568h-1.238l1.778-10.24,1.121-.007-.137.827a2.806,2.806,0,0,1,2.194-.957,2.066,2.066,0,0,1,1.662.786,3.458,3.458,0,0,1,.628,2.092,7.126,7.126,0,0,1-.034.848Zm-1.217-.143.034-.574a2.563,2.563,0,0,0-.383-1.524,1.319,1.319,0,0,0-1.093-.561,2.194,2.194,0,0,0-1.853,1.019l-.622,3.548a1.547,1.547,0,0,0,1.5,1.012,1.938,1.938,0,0,0,1.565-.718A4.193,4.193,0,0,0,136.251,48.192Zm6.823-3.726a2.666,2.666,0,0,1,1.593.506,2.856,2.856,0,0,1,.978,1.36,4.146,4.146,0,0,1,.218,1.887l-.013.15a5.007,5.007,0,0,1-.643,1.955,3.782,3.782,0,0,1-1.326,1.354,3.233,3.233,0,0,1-1.784.458,2.686,2.686,0,0,1-1.593-.506,2.819,2.819,0,0,1-.971-1.34,4.319,4.319,0,0,1-.219-1.866,5.041,5.041,0,0,1,.623-2.064,3.832,3.832,0,0,1,1.333-1.415A3.193,3.193,0,0,1,143.074,44.467Zm-2.515,3.965a4.185,4.185,0,0,0,0,.9,2.206,2.206,0,0,0,.478,1.285,1.457,1.457,0,0,0,1.108.5,1.983,1.983,0,0,0,1.134-.3,2.577,2.577,0,0,0,.875-.984,4.123,4.123,0,0,0,.458-1.456,6.477,6.477,0,0,0,.021-1.06,2.279,2.279,0,0,0-.5-1.306,1.479,1.479,0,0,0-1.108-.506,2.017,2.017,0,0,0-1.627.752,3.721,3.721,0,0,0-.827,2.023ZM151.409,52l1.73-9.953,2.584.007a3.569,3.569,0,0,1,2.091.608,3.347,3.347,0,0,1,1.265,1.682,5.2,5.2,0,0,1,.226,2.393l-.069.5a5.64,5.64,0,0,1-1.688,3.473A4.917,4.917,0,0,1,154.062,52Zm2.823-8.873-1.353,7.8,1.265.007a3.541,3.541,0,0,0,2.454-.9,4.273,4.273,0,0,0,1.312-2.475,8.036,8.036,0,0,0,.164-2.14,2.589,2.589,0,0,0-.7-1.654,2.272,2.272,0,0,0-1.613-.629Zm9.667,9.01a2.668,2.668,0,0,1-2.16-1.019,3.508,3.508,0,0,1-.656-2.536l.034-.294a4.952,4.952,0,0,1,.65-2.01,3.793,3.793,0,0,1,1.312-1.367,3.038,3.038,0,0,1,1.668-.444,2.352,2.352,0,0,1,1.791.759,3.12,3.12,0,0,1,.711,1.982,5.739,5.739,0,0,1-.027.889l-.076.567h-4.833a2.51,2.51,0,0,0,.329,1.709A1.578,1.578,0,0,0,164,51.1a2.63,2.63,0,0,0,2.023-.984l.711.6a3.277,3.277,0,0,1-1.2,1.053A3.4,3.4,0,0,1,163.9,52.137Zm.787-6.638a1.818,1.818,0,0,0-1.34.52,3.713,3.713,0,0,0-.9,1.606l3.6.007.027-.109a2,2,0,0,0-.28-1.429A1.29,1.29,0,0,0,164.686,45.5ZM173.04,50q.1-.766-.841-1.08l-1.285-.376q-1.628-.561-1.572-1.859a2.042,2.042,0,0,1,.888-1.6,3.184,3.184,0,0,1,1.99-.615,2.628,2.628,0,0,1,1.818.656,2.056,2.056,0,0,1,.677,1.661l-1.231-.007a1.156,1.156,0,0,0-.348-.9,1.381,1.381,0,0,0-.964-.362,1.8,1.8,0,0,0-1.108.314,1.153,1.153,0,0,0-.5.807q-.089.643.787.937l.622.171a4,4,0,0,1,1.8.854,1.632,1.632,0,0,1,.493,1.306,2.075,2.075,0,0,1-.452,1.2,2.6,2.6,0,0,1-1.093.786,3.7,3.7,0,0,1-1.456.246,2.9,2.9,0,0,1-1.942-.684,2.135,2.135,0,0,1-.738-1.736l1.237.007a1.309,1.309,0,0,0,.4,1,1.514,1.514,0,0,0,1.087.376,2.148,2.148,0,0,0,1.168-.28A1.1,1.1,0,0,0,173.04,50Zm5.641-1.408-.971.868L177.272,52h-1.237l1.825-10.5H179.1L178,47.775l.759-.766,2.625-2.406h1.606l-3.4,3.151L181.935,52h-1.354Zm8.074-5.776L186.44,44.6h1.347l-.171.978h-1.34l-.772,4.6a1.592,1.592,0,0,0-.007.328.522.522,0,0,0,.581.533,3.543,3.543,0,0,0,.6-.068l-.1,1.032a3.361,3.361,0,0,1-.9.123,1.3,1.3,0,0,1-1.108-.54,2.114,2.114,0,0,1-.287-1.429l.752-4.58h-1.306l.171-.978h1.306l.314-1.791Zm5.716,1.654a2.665,2.665,0,0,1,1.592.506,2.849,2.849,0,0,1,.978,1.36,4.159,4.159,0,0,1,.219,1.887l-.014.15a5.005,5.005,0,0,1-.642,1.955,3.777,3.777,0,0,1-1.327,1.354,3.233,3.233,0,0,1-1.784.458,2.688,2.688,0,0,1-1.593-.506,2.817,2.817,0,0,1-.97-1.34,4.319,4.319,0,0,1-.219-1.866,5.04,5.04,0,0,1,.622-2.064,3.84,3.84,0,0,1,1.333-1.415A3.2,3.2,0,0,1,192.471,44.467Zm-2.516,3.965a4.187,4.187,0,0,0,0,.9,2.207,2.207,0,0,0,.479,1.285,1.457,1.457,0,0,0,1.107.5,1.988,1.988,0,0,0,1.135-.3,2.585,2.585,0,0,0,.875-.984,4.144,4.144,0,0,0,.458-1.456,6.58,6.58,0,0,0,.02-1.06,2.272,2.272,0,0,0-.5-1.306,1.479,1.479,0,0,0-1.107-.506,2.017,2.017,0,0,0-1.627.752,3.713,3.713,0,0,0-.827,2.023Zm13.427-.1a5.854,5.854,0,0,1-.609,2.03A3.478,3.478,0,0,1,201.6,51.72a2.686,2.686,0,0,1-1.544.424,2.464,2.464,0,0,1-1.969-.868l-.663,3.568H196.19l1.778-10.24,1.121-.007-.137.827a2.806,2.806,0,0,1,2.194-.957,2.066,2.066,0,0,1,1.662.786,3.465,3.465,0,0,1,.629,2.092,7.337,7.337,0,0,1-.035.848Zm-1.217-.143.034-.574a2.563,2.563,0,0,0-.383-1.524,1.319,1.319,0,0,0-1.093-.561,2.194,2.194,0,0,0-1.853,1.019l-.622,3.548a1.547,1.547,0,0,0,1.5,1.012,1.941,1.941,0,0,0,1.566-.718A4.2,4.2,0,0,0,202.165,48.192Z" fill="#828d8c"/>
    <path id="Caminho_2" data-name="Caminho 2" d="M12,36a27.041,27.041,0,1,1,7.92,19.08l4.26-4.26A20.959,20.959,0,1,0,18,36h9L14.88,48.09l-.21-.42L3,36Zm24,3V24h4.5V36.75L51,42.99l-2.16,3.63Z" fill="#828d8c" fill-rule="evenodd"/>
  </g>
</svg>
